<?xml version="1.0" encoding="utf-8"?>
<!-- Generator: Adobe Illustrator 26.0.3, SVG Export Plug-In . SVG Version: 6.00 Build 0)  -->
<svg version="1.1" xmlns="http://www.w3.org/2000/svg" xmlns:xlink="http://www.w3.org/1999/xlink" x="0px" y="0px"
	 viewBox="0 0 430.6 298.6" style="enable-background:new 0 0 430.6 298.6;" xml:space="preserve">
<style type="text/css">
	.st0{fill:none;}
	.st1{fill:none;stroke:#DDDDDD;stroke-width:1.2123;stroke-miterlimit:10;}
	.st2{display:none;fill:none;stroke:#DDDDDD;stroke-miterlimit:10;}
	.st3{display:none;}
	.st4{fill:none;stroke:#FF0000;stroke-width:4.3643;stroke-miterlimit:10;}
	.st5{fill:none;stroke:#4C78A8;stroke-width:4.3643;stroke-miterlimit:10;}
	.st6{fill:none;stroke:#DDDDDD;stroke-width:0.7522;stroke-miterlimit:10;}
	.st7{font-family:'Helvetica';}
	.st8{font-size:12.5467px;}
	.st9{font-family:'Helvetica-Bold';}
	.st10{font-size:12px;}
	.st11{fill:none;stroke:#FF0000;stroke-width:2.7079;stroke-miterlimit:10;}
	.st12{fill:none;stroke:#4C78A8;stroke-width:2.7079;stroke-miterlimit:10;}
	.st13{display:none;fill:none;stroke:#4C78A8;stroke-width:3.6;stroke-miterlimit:10;}
</style>
<g id="Layer_1">
	<path pointer-events="none" class="st0" d="M-673.1,255.3L-673.1,255.3L-673.1,255.3L-673.1,255.3z"/>
	<line class="st1" x1="-589.1" y1="-110.3" x2="-589.1" y2="253.4"/>
	<line class="st1" x1="-528.4" y1="-110.3" x2="-528.4" y2="253.4"/>
	<line class="st1" x1="-467.8" y1="-110.3" x2="-467.8" y2="253.4"/>
	<line class="st1" x1="-407.2" y1="-110.3" x2="-407.2" y2="253.4"/>
	<line class="st1" x1="-346.6" y1="-110.3" x2="-346.6" y2="253.4"/>
	<line class="st1" x1="-286" y1="-110.3" x2="-286" y2="253.4"/>
	<line class="st1" x1="-225.4" y1="-110.3" x2="-225.4" y2="253.4"/>
	<path pointer-events="none" class="st2" d="M-785.7-288.1"/>
	<path pointer-events="none" class="st0" d="M-673.1-108.4L-673.1-108.4L-673.1-108.4L-673.1-108.4z"/>
	<line class="st1" x1="-649.7" y1="253.4" x2="-164.8" y2="253.4"/>
	<line class="st1" x1="-649.7" y1="220.7" x2="-164.8" y2="220.7"/>
	<line class="st1" x1="-649.7" y1="186.7" x2="-164.8" y2="186.7"/>
	<line class="st1" x1="-649.7" y1="154" x2="-164.8" y2="154"/>
	<line class="st1" x1="-649.7" y1="121.3" x2="-164.8" y2="121.3"/>
	<line class="st1" x1="-649.7" y1="88.5" x2="-164.8" y2="88.5"/>
	<line class="st1" x1="-649.7" y1="54.6" x2="-164.8" y2="54.6"/>
	<line class="st1" x1="-649.7" y1="21.8" x2="-164.8" y2="21.8"/>
	<line class="st1" x1="-649.7" y1="-10.9" x2="-164.8" y2="-10.9"/>
	<line class="st1" x1="-649.7" y1="-43.6" x2="-164.8" y2="-43.6"/>
	<line class="st1" x1="-649.7" y1="-77.6" x2="-164.8" y2="-77.6"/>
	<line class="st1" x1="-649.7" y1="-110.3" x2="-164.8" y2="-110.3"/>
	<path pointer-events="none" class="st2" d="M-785.7-588.1"/>
	<path pointer-events="none" class="st0" d="M-673.1,255.3L-673.1,255.3L-673.1,255.3L-673.1,255.3z"/>
	<text transform="matrix(1 0 0 1 -652.814 273.4829)" class="st7" style="font-size:15.7598px;">2014</text>
	<text transform="matrix(1 0 0 1 -601.3077 273.4829)" class="st7" style="font-size:15.7598px;">2015</text>
	<text transform="matrix(1 0 0 1 -544.3292 273.4829)" class="st7" style="font-size:15.7598px;">2016</text>
	<text transform="matrix(1 0 0 1 -484.9268 273.4829)" class="st7" style="font-size:15.7598px;">2017</text>
	<text transform="matrix(1 0 0 1 -425.5244 273.4829)" class="st7" style="font-size:15.7598px;">2018</text>
	<text transform="matrix(1 0 0 1 -363.6973 273.4829)" class="st7" style="font-size:15.7598px;">2019</text>
	<text transform="matrix(1 0 0 1 -303.083 273.4829)" class="st7" style="font-size:15.7598px;">2020</text>
	<text transform="matrix(1 0 0 1 -243.6807 273.4829)" class="st7" style="font-size:15.7598px;">2021</text>
	<text transform="matrix(1 0 0 1 -198.2344 273.4829)" class="st7" style="font-size:15.7598px;">2022</text>
	<text transform="matrix(1 0 0 1 -477.0625 300.9292)" class="st9" style="font-size:16.9721px;">Incident year</text>
	<text transform="matrix(1 0 0 1 -153.3955 -100.4966)" class="st9" style="font-size:16.9721px;">dead</text>
	<text transform="matrix(1 0 0 1 -155.1475 -35.8188)" class="st9" style="font-size:16.9721px;">missing</text>
	<text transform="matrix(7.199013e-03 -1 1 7.199013e-03 -722.3799 135.5548)" class="st9" style="font-size:16.9721px;">Total of people</text>
	<path pointer-events="none" class="st3" d="M-785.7-288.1"/>
	<path pointer-events="none" class="st0" d="M-673.1-108.4L-673.1-108.4L-673.1-108.4L-673.1-108.4z"/>
	<text transform="matrix(1 0 0 1 -678.6744 258.9116)" class="st7" style="font-size:15.7598px;">0</text>
	<text transform="matrix(1 0 0 1 -692.1597 225.8481)" class="st7" style="font-size:15.7598px;">500</text>
	<text transform="matrix(1 0 0 1 -702.2691 192.7856)" class="st7" style="font-size:15.7598px;">1,000</text>
	<text transform="matrix(1 0 0 1 -702.2691 159.7251)" class="st7" style="font-size:15.7598px;">1,500</text>
	<text transform="matrix(1 0 0 1 -702.2691 126.6616)" class="st7" style="font-size:15.7598px;">2,000</text>
	<text transform="matrix(1 0 0 1 -702.2691 93.5991)" class="st7" style="font-size:15.7598px;">2,500</text>
	<text transform="matrix(1 0 0 1 -702.2691 60.5356)" class="st7" style="font-size:15.7598px;">3,000</text>
	<text transform="matrix(1 0 0 1 -702.2691 27.4741)" class="st7" style="font-size:15.7598px;">3,500</text>
	<text transform="matrix(1 0 0 1 -702.2691 -5.5884)" class="st7" style="font-size:15.7598px;">4,000</text>
	<text transform="matrix(1 0 0 1 -702.2691 -38.6519)" class="st7" style="font-size:15.7598px;">4,500</text>
	<text transform="matrix(1 0 0 1 -702.2691 -71.7143)" class="st7" style="font-size:15.7598px;">5,000</text>
	<text transform="matrix(1 0 0 1 -702.2691 -104.7768)" class="st7" style="font-size:15.7598px;">5,500</text>
	<path pointer-events="none" class="st3" d="M-785.7-588.1"/>
	<path class="st4" d="M-650.3,17l60.6,61.4l60.6-91l60.6,92.1l60.6,53.5l60.6,2.2l60.6-15.7l60.6-40.4L-165.4-40"/>
	<path class="st5" d="M-650.3,136.9l60.6-153.7l60.6,0.2l60.6,27.1l60.6,32.3l60.6-28.4l60.6,89.5L-226-25.5l60.6-79.1"/>
	<path pointer-events="none" class="st0" d="M49.4,252.8L49.4,252.8L49.4,252.8L49.4,252.8z"/>
	<line class="st6" x1="109.4" y1="23.6" x2="109.4" y2="249.3"/>
	<line class="st6" x1="147" y1="23.6" x2="147" y2="249.3"/>
	<line class="st6" x1="184.6" y1="23.6" x2="184.6" y2="249.3"/>
	<line class="st6" x1="222.2" y1="23.6" x2="222.2" y2="249.3"/>
	<line class="st6" x1="259.8" y1="23.6" x2="259.8" y2="249.3"/>
	<line class="st6" x1="297.5" y1="23.6" x2="297.5" y2="249.3"/>
	<line class="st6" x1="335.1" y1="23.6" x2="335.1" y2="249.3"/>
	<path pointer-events="none" class="st0" d="M49.4,27.2L49.4,27.2L49.4,27.2L49.4,27.2z"/>
	<line class="st6" x1="71.8" y1="249.3" x2="372.7" y2="249.3"/>
	<line class="st6" x1="71.8" y1="228.9" x2="372.7" y2="228.9"/>
	<line class="st6" x1="71.8" y1="207.9" x2="372.7" y2="207.9"/>
	<line class="st6" x1="71.8" y1="187.6" x2="372.7" y2="187.6"/>
	<line class="st6" x1="71.8" y1="167.3" x2="372.7" y2="167.3"/>
	<line class="st6" x1="71.8" y1="147" x2="372.7" y2="147"/>
	<line class="st6" x1="71.8" y1="125.9" x2="372.7" y2="125.9"/>
	<line class="st6" x1="71.8" y1="105.6" x2="372.7" y2="105.6"/>
	<line class="st6" x1="71.8" y1="85.3" x2="372.7" y2="85.3"/>
	<line class="st6" x1="71.8" y1="65" x2="372.7" y2="65"/>
	<line class="st6" x1="71.8" y1="43.9" x2="372.7" y2="43.9"/>
	<line class="st6" x1="71.8" y1="23.6" x2="372.7" y2="23.6"/>
	<path pointer-events="none" class="st0" d="M49.4,252.8L49.4,252.8L49.4,252.8L49.4,252.8z"/>
	<text transform="matrix(1 0 0 1 69.8481 261.7195)" class="st7 st8">2014</text>
	<text transform="matrix(1 0 0 1 101.8061 261.7195)" class="st7 st8">2015</text>
	<text transform="matrix(1 0 0 1 137.1586 261.7195)" class="st7 st8">2016</text>
	<text transform="matrix(1 0 0 1 174.016 261.7195)" class="st7 st8">2017</text>
	<text transform="matrix(1 0 0 1 210.8725 261.7195)" class="st7 st8">2018</text>
	<text transform="matrix(1 0 0 1 249.2348 261.7195)" class="st7 st8">2019</text>
	<text transform="matrix(1 0 0 1 286.8441 261.7195)" class="st7 st8">2020</text>
	<text transform="matrix(1 0 0 1 323.7006 261.7195)" class="st7 st8">2021</text>
	<text transform="matrix(1 0 0 1 351.8979 261.7195)" class="st7 st8">2022</text>
	<text transform="matrix(1 0 0 1 185.1684 285.8855)" class="st9 st8">Incident year</text>
	<text transform="matrix(1 0 0 1 377.6283 29.6794)" class="st9 st8">dead</text>
	<text transform="matrix(1 0 0 1 376.5414 69.8093)" class="st9 st8">missing</text>
	<text transform="matrix(7.199012e-03 -1 1 7.199012e-03 19.4374 170.2595)" class="st9 st10">Total of people</text>
	<path pointer-events="none" class="st0" d="M49.4,27.2L49.4,27.2L49.4,27.2L49.4,27.2z"/>
	<text transform="matrix(1 0 0 1 46.0131 255.0759)" class="st7 st8">0</text>
	<text transform="matrix(1 0 0 1 37.6469 234.5613)" class="st7 st8">500</text>
	<text transform="matrix(1 0 0 1 31.3744 214.0466)" class="st7 st8">1,000</text>
	<text transform="matrix(1 0 0 1 31.3744 193.5349)" class="st7 st8">1,500</text>
	<text transform="matrix(1 0 0 1 31.3744 173.0193)" class="st7 st8">2,000</text>
	<text transform="matrix(1 0 0 1 31.3744 152.5066)" class="st7 st8">2,500</text>
	<text transform="matrix(1 0 0 1 31.3744 131.991)" class="st7 st8">3,000</text>
	<text transform="matrix(1 0 0 1 31.3744 111.4783)" class="st7 st8">3,500</text>
	<text transform="matrix(1 0 0 1 31.3744 90.9636)" class="st7 st8">4,000</text>
	<text transform="matrix(1 0 0 1 31.3744 70.449)" class="st7 st8">4,500</text>
	<text transform="matrix(1 0 0 1 31.3744 49.9343)" class="st7 st8">5,000</text>
	<text transform="matrix(1 0 0 1 31.3744 29.4206)" class="st7 st8">5,500</text>
	<path class="st11" d="M71.4,102.6l37.6,38.1l37.6-56.5l37.6,57.2l37.6,33.2l37.6,1.4l37.6-9.8l37.6-25.1l37.6-73.9"/>
	<path class="st12" d="M71.4,177L109,81.6l37.6,0.1l37.6,16.8l37.6,20l37.6-17.6l37.6,55.6l37.6-80.3l37.6-49.1"/>
	<path class="st13" d="M-786.2-588.6"/>
</g>
<g id="ai2html-settings">
	<rect x="-1196.6" y="-124.6" class="st0" width="400" height="418"/>
	
		<text id="ai2html-settings_00000089531578926944682150000017832302272234206355_" transform="matrix(1 0 0 1 -1196.5713 -113.9263)"><tspan x="0" y="0" style="font-family:'MyriadPro-Regular'; font-size:15px;">ai2html-settings</tspan><tspan x="0" y="19" style="font-family:'MyriadPro-Regular'; font-size:15px;">settings_version: 0.106.0</tspan><tspan x="0" y="38" style="font-family:'MyriadPro-Regular'; font-size:15px;">image_format: auto</tspan><tspan x="0" y="57" style="font-family:'MyriadPro-Regular'; font-size:15px;">responsiveness: fixed</tspan><tspan x="0" y="76" style="font-family:'MyriadPro-Regular'; font-size:15px;">output: one-file</tspan><tspan x="0" y="95" style="font-family:'MyriadPro-Regular'; font-size:15px;">html_output_path: /ai2html-output/</tspan><tspan x="0" y="114" style="font-family:'MyriadPro-Regular'; font-size:15px;">html_output_extension: .html</tspan><tspan x="0" y="133" style="font-family:'MyriadPro-Regular'; font-size:15px;">image_output_path: </tspan><tspan x="0" y="152" style="font-family:'MyriadPro-Regular'; font-size:15px;">local_preview_template: </tspan><tspan x="0" y="171" style="font-family:'MyriadPro-Regular'; font-size:15px;">png_number_of_colors: 128</tspan><tspan x="0" y="190" style="font-family:'MyriadPro-Regular'; font-size:15px;">jpg_quality: 60</tspan><tspan x="0" y="209" style="font-family:'MyriadPro-Regular'; font-size:15px;">headline: </tspan><tspan x="0" y="228" style="font-family:'MyriadPro-Regular'; font-size:15px;">leadin: </tspan><tspan x="0" y="247" style="font-family:'MyriadPro-Regular'; font-size:15px;">notes: </tspan><tspan x="0" y="266" style="font-family:'MyriadPro-Regular'; font-size:15px;">sources: </tspan><tspan x="0" y="285" style="font-family:'MyriadPro-Regular'; font-size:15px;">credit: </tspan></text>
</g>
</svg>
